<?xml version="1.0" encoding="utf-8"?>
<!-- Generator: Adobe Illustrator 25.2.0, SVG Export Plug-In . SVG Version: 6.00 Build 0)  -->
<svg version="1.1" id="레이어_1" xmlns="http://www.w3.org/2000/svg" xmlns:xlink="http://www.w3.org/1999/xlink" x="0px"
	 y="0px" viewBox="0 0 500 500" style="enable-background:new 0 0 500 500;" xml:space="preserve">
<style type="text/css">
	.st0{fill:url(#SVGID_1_);}
	.st1{fill:#FFFFFF;}
	.st2{fill:#2ECE6D;}
	.st3{opacity:0.3;fill:#FFFFFF;}
</style>
<g>
	<linearGradient id="SVGID_1_" gradientUnits="userSpaceOnUse" x1="109.9559" y1="215.1441" x2="396.277" y2="381.1057">
		<stop  offset="0" style="stop-color:#663DFF"/>
		<stop  offset="1" style="stop-color:#A708FF"/>
	</linearGradient>
	<circle class="st0" cx="250" cy="296.32" r="175.35"/>
	<path class="st1" d="M340.66,319.89c-19.62,35.7-46.35,44.11-46.35,44.11l8.22,13.27l-64.1-2.62l32.71-53.64
		c0,0,3.55,5.42,8.22,11.96c28.78-13.83,44.11-36.65,44.11-36.65s-7.29-4.84-13.64-7.83c21.31-11.59,23.36-24.48,23.36-39.62
		c0-47.12-44.96-47.55-49.34-47.48v-33.07h-24.79v33.08H238v-33.08H213.2v33.08h-51.5v26.35l22.34,0.02c0,0,0,4.09,0,66.64
		c20.93-38.13,49.3-47.35,49.3-47.35l-8.43-13.08l63.67,1.25l-33.77,52.95l-7.14-11.46c-61.22,34.39-63,84.97-63,84.97
		s-10.84,0-16.95,0c-0.75,12.46-6.02,30.53-6.02,30.53s20.94,0,51.64,0v28.28h24.79v-28.28c6.78,0,13.83,0,21.06,0v28.28h24.79
		v-28.28c0.08,0,0.16,0,0.23,0C350.2,384.55,343.2,332.6,340.66,319.89z"/>
	<g>
		<path class="st2" d="M241.88,109.38V82.14c0-8.6-2.29-17.07-6.8-24.4c-7.84-12.75-23.31-29.4-50.64-29.4c-26.35,0-38.69,0-38.69,0
			v30.65c0,0,1.12,50.4,58.87,50.4C226.87,109.38,241.88,109.38,241.88,109.38z"/>
		<path class="st2" d="M255.9,109.38V90.66c0-5.91,1.66-11.73,4.93-16.77c5.69-8.76,16.91-20.2,36.73-20.2c19.11,0,28.06,0,28.06,0
			v21.06c0,0-0.81,34.63-42.69,34.63C266.79,109.38,255.9,109.38,255.9,109.38z"/>
	</g>
	
		<ellipse transform="matrix(0.3523 -0.9359 0.9359 0.3523 -11.9839 336.884)" class="st3" cx="237.41" cy="177.1" rx="11.73" ry="4.81"/>
	
		<ellipse transform="matrix(0.3523 -0.9359 0.9359 0.3523 37.5156 374.0228)" class="st3" cx="288.99" cy="159.91" rx="11.73" ry="4.81"/>
	
		<ellipse transform="matrix(0.3523 -0.9359 0.9359 0.3523 38.9864 449.5728)" class="st3" cx="344.31" cy="196.62" rx="11.73" ry="4.81"/>
	
		<ellipse transform="matrix(0.3523 -0.9359 0.9359 0.3523 -3.4436 497.9054)" class="st3" cx="358.02" cy="251.44" rx="11.73" ry="4.81"/>
	
		<ellipse transform="matrix(0.3523 -0.9359 0.9359 0.3523 -57.9788 533.2315)" class="st3" cx="356.27" cy="308.51" rx="11.73" ry="4.81"/>
	
		<ellipse transform="matrix(0.3523 -0.9359 0.9359 0.3523 -11.324 554.0592)" class="st3" cx="394.65" cy="285.21" rx="11.73" ry="4.81"/>
	
		<ellipse transform="matrix(0.3523 -0.9359 0.9359 0.3523 -78.3089 597.3112)" class="st3" cx="392.41" cy="355.23" rx="11.73" ry="4.81"/>
	
		<ellipse transform="matrix(0.3523 -0.9359 0.9359 0.3523 -161.2302 588.1302)" class="st3" cx="344.31" cy="410.55" rx="11.73" ry="4.81"/>
	
		<ellipse transform="matrix(0.3523 -0.9359 0.9359 0.3523 -224.415 546.6661)" class="st3" cx="282.76" cy="435.47" rx="11.73" ry="4.81"/>
	
		<ellipse transform="matrix(0.3523 -0.9359 0.9359 0.3523 -258.5935 494.7859)" class="st3" cx="228.19" cy="434.23" rx="11.73" ry="4.81"/>
	
		<ellipse transform="matrix(0.3523 -0.9359 0.9359 0.3523 -198.9802 448.3577)" class="st3" cx="224.45" cy="367.94" rx="11.73" ry="4.81"/>
	
		<ellipse transform="matrix(0.3523 -0.9359 0.9359 0.3523 -263.8717 421.8708)" class="st3" cx="172.87" cy="401.58" rx="11.73" ry="4.81"/>
	
		<ellipse transform="matrix(0.3523 -0.9359 0.9359 0.3523 -265.3693 371.8619)" class="st3" cx="135.99" cy="377.66" rx="11.73" ry="4.81"/>
	
		<ellipse transform="matrix(0.3523 -0.9359 0.9359 0.3523 -212.332 386.2033)" class="st3" cx="172.87" cy="346.51" rx="11.73" ry="4.81"/>
	
		<ellipse transform="matrix(0.3523 -0.9359 0.9359 0.3523 -216.6281 338.1312)" class="st3" cx="135.99" cy="325.58" rx="11.73" ry="4.81"/>
	
		<ellipse transform="matrix(0.3523 -0.9359 0.9359 0.3523 -252.1229 323.7213)" class="st3" cx="107.83" cy="344.02" rx="11.73" ry="4.81"/>
	
		<ellipse transform="matrix(0.3523 -0.9359 0.9359 0.3523 -154.5682 351.0572)" class="st3" cx="176.36" cy="287.2" rx="11.73" ry="4.81"/>
	
		<ellipse transform="matrix(0.3523 -0.9359 0.9359 0.3523 -161.2682 304.9936)" class="st3" cx="139.72" cy="269.01" rx="11.73" ry="4.81"/>
	
		<ellipse transform="matrix(0.3523 -0.9359 0.9359 0.3523 -205.4443 289.0036)" class="st3" cx="106.08" cy="292.94" rx="11.73" ry="4.81"/>
	
		<ellipse transform="matrix(0.3523 -0.9359 0.9359 0.3523 -153.0985 258.9865)" class="st3" cx="110.57" cy="240.11" rx="11.73" ry="4.81"/>
	
		<ellipse transform="matrix(0.3523 -0.9359 0.9359 0.3523 -103.993 268.6433)" class="st3" cx="142.1" cy="209.46" rx="11.73" ry="4.81"/>
	
		<ellipse transform="matrix(0.3523 -0.9359 0.9359 0.3523 -99.0639 312.6461)" class="st3" cx="176.36" cy="227.9" rx="11.73" ry="4.81"/>
	
		<ellipse transform="matrix(0.3523 -0.9359 0.9359 0.3523 -19.0951 283.1722)" class="st3" cx="195.05" cy="155.38" rx="11.73" ry="4.81"/>
	
		<ellipse transform="matrix(0.3523 -0.9359 0.9359 0.3523 -41.8629 412.7454)" class="st3" cx="277.28" cy="236.62" rx="11.73" ry="4.81"/>
	
		<ellipse transform="matrix(0.3523 -0.9359 0.9359 0.3523 -52.4273 481.1784)" class="st3" cx="321.44" cy="278.47" rx="11.73" ry="4.81"/>
	
		<ellipse transform="matrix(0.3523 -0.9359 0.9359 0.3523 -158.0823 485.2409)" class="st3" cx="271.55" cy="356.84" rx="11.73" ry="4.81"/>
</g>
</svg>
